<mxfile host="app.diagrams.net" agent="Mozilla/5.0 (X11; Linux x86_64) AppleWebKit/537.36 (KHTML, like Gecko) Chrome/136.0.0.0 Safari/537.36" version="27.0.9">
  <diagram name="Page-1" id="aR3N1xCiY2Mz1_LrbzqZ">
    <mxGraphModel dx="1340" dy="1747" grid="1" gridSize="10" guides="1" tooltips="1" connect="1" arrows="1" fold="1" page="1" pageScale="1" pageWidth="827" pageHeight="1169" math="0" shadow="0">
      <root>
        <mxCell id="0" />
        <mxCell id="1" parent="0" />
        <mxCell id="qYvTp6i2QZ827_Topgat-69" style="edgeStyle=orthogonalEdgeStyle;rounded=0;orthogonalLoop=1;jettySize=auto;html=1;exitX=1;exitY=0;exitDx=0;exitDy=0;entryX=0.5;entryY=1;entryDx=0;entryDy=0;" parent="1" source="qYvTp6i2QZ827_Topgat-1" target="qYvTp6i2QZ827_Topgat-83" edge="1">
          <mxGeometry relative="1" as="geometry">
            <mxPoint x="540" y="-50" as="targetPoint" />
          </mxGeometry>
        </mxCell>
        <mxCell id="qYvTp6i2QZ827_Topgat-70" style="edgeStyle=orthogonalEdgeStyle;rounded=0;orthogonalLoop=1;jettySize=auto;html=1;entryX=0;entryY=0.5;entryDx=0;entryDy=0;" parent="1" source="qYvTp6i2QZ827_Topgat-1" target="qYvTp6i2QZ827_Topgat-22" edge="1">
          <mxGeometry relative="1" as="geometry" />
        </mxCell>
        <mxCell id="qYvTp6i2QZ827_Topgat-73" style="edgeStyle=orthogonalEdgeStyle;rounded=0;orthogonalLoop=1;jettySize=auto;html=1;entryX=0;entryY=0.75;entryDx=0;entryDy=0;" parent="1" source="qYvTp6i2QZ827_Topgat-126" target="qYvTp6i2QZ827_Topgat-72" edge="1">
          <mxGeometry relative="1" as="geometry" />
        </mxCell>
        <mxCell id="qYvTp6i2QZ827_Topgat-104" style="edgeStyle=orthogonalEdgeStyle;rounded=0;orthogonalLoop=1;jettySize=auto;html=1;entryX=0.25;entryY=0;entryDx=0;entryDy=0;" parent="1" source="qYvTp6i2QZ827_Topgat-1" target="qYvTp6i2QZ827_Topgat-20" edge="1">
          <mxGeometry relative="1" as="geometry" />
        </mxCell>
        <mxCell id="qYvTp6i2QZ827_Topgat-142" style="edgeStyle=orthogonalEdgeStyle;rounded=0;orthogonalLoop=1;jettySize=auto;html=1;exitX=0.25;exitY=1;exitDx=0;exitDy=0;entryX=0.5;entryY=0;entryDx=0;entryDy=0;" parent="1" source="qYvTp6i2QZ827_Topgat-143" target="qYvTp6i2QZ827_Topgat-117" edge="1">
          <mxGeometry relative="1" as="geometry" />
        </mxCell>
        <mxCell id="qYvTp6i2QZ827_Topgat-1" value="user" style="rounded=1;whiteSpace=wrap;html=1;" parent="1" vertex="1">
          <mxGeometry x="120" y="60" width="150" height="40" as="geometry" />
        </mxCell>
        <mxCell id="qYvTp6i2QZ827_Topgat-14" style="edgeStyle=orthogonalEdgeStyle;rounded=0;orthogonalLoop=1;jettySize=auto;html=1;entryX=1;entryY=0.25;entryDx=0;entryDy=0;" parent="1" source="qYvTp6i2QZ827_Topgat-2" target="qYvTp6i2QZ827_Topgat-1" edge="1">
          <mxGeometry relative="1" as="geometry" />
        </mxCell>
        <mxCell id="qYvTp6i2QZ827_Topgat-2" value="Fname" style="ellipse;whiteSpace=wrap;html=1;" parent="1" vertex="1">
          <mxGeometry x="330" y="40" width="80" height="30" as="geometry" />
        </mxCell>
        <mxCell id="qYvTp6i2QZ827_Topgat-15" style="edgeStyle=orthogonalEdgeStyle;rounded=0;orthogonalLoop=1;jettySize=auto;html=1;entryX=1;entryY=0.75;entryDx=0;entryDy=0;" parent="1" source="qYvTp6i2QZ827_Topgat-3" target="qYvTp6i2QZ827_Topgat-1" edge="1">
          <mxGeometry relative="1" as="geometry" />
        </mxCell>
        <mxCell id="qYvTp6i2QZ827_Topgat-3" value="Lname" style="ellipse;whiteSpace=wrap;html=1;" parent="1" vertex="1">
          <mxGeometry x="330" y="90" width="80" height="30" as="geometry" />
        </mxCell>
        <mxCell id="qYvTp6i2QZ827_Topgat-17" style="edgeStyle=orthogonalEdgeStyle;rounded=0;orthogonalLoop=1;jettySize=auto;html=1;entryX=0.75;entryY=1;entryDx=0;entryDy=0;" parent="1" source="qYvTp6i2QZ827_Topgat-4" target="qYvTp6i2QZ827_Topgat-1" edge="1">
          <mxGeometry relative="1" as="geometry" />
        </mxCell>
        <mxCell id="qYvTp6i2QZ827_Topgat-4" value="Email" style="ellipse;whiteSpace=wrap;html=1;" parent="1" vertex="1">
          <mxGeometry x="220" y="160" width="80" height="30" as="geometry" />
        </mxCell>
        <mxCell id="qYvTp6i2QZ827_Topgat-5" value="Pass" style="ellipse;whiteSpace=wrap;html=1;" parent="1" vertex="1">
          <mxGeometry x="100" y="160" width="80" height="30" as="geometry" />
        </mxCell>
        <mxCell id="qYvTp6i2QZ827_Topgat-11" style="edgeStyle=orthogonalEdgeStyle;rounded=0;orthogonalLoop=1;jettySize=auto;html=1;" parent="1" source="qYvTp6i2QZ827_Topgat-6" target="qYvTp6i2QZ827_Topgat-1" edge="1">
          <mxGeometry relative="1" as="geometry" />
        </mxCell>
        <mxCell id="qYvTp6i2QZ827_Topgat-6" value="Mphone" style="ellipse;whiteSpace=wrap;html=1;" parent="1" vertex="1">
          <mxGeometry x="-30" y="105" width="80" height="30" as="geometry" />
        </mxCell>
        <mxCell id="qYvTp6i2QZ827_Topgat-7" value="image" style="ellipse;whiteSpace=wrap;html=1;" parent="1" vertex="1">
          <mxGeometry x="30" y="-10" width="80" height="30" as="geometry" />
        </mxCell>
        <mxCell id="qYvTp6i2QZ827_Topgat-10" value="ID" style="ellipse;whiteSpace=wrap;html=1;" parent="1" vertex="1">
          <mxGeometry x="150" width="80" height="30" as="geometry" />
        </mxCell>
        <mxCell id="qYvTp6i2QZ827_Topgat-12" style="edgeStyle=orthogonalEdgeStyle;rounded=0;orthogonalLoop=1;jettySize=auto;html=1;exitX=0.5;exitY=1;exitDx=0;exitDy=0;entryX=0.651;entryY=0.045;entryDx=0;entryDy=0;entryPerimeter=0;" parent="1" source="qYvTp6i2QZ827_Topgat-10" target="qYvTp6i2QZ827_Topgat-1" edge="1">
          <mxGeometry relative="1" as="geometry" />
        </mxCell>
        <mxCell id="qYvTp6i2QZ827_Topgat-13" style="edgeStyle=orthogonalEdgeStyle;rounded=0;orthogonalLoop=1;jettySize=auto;html=1;entryX=0.092;entryY=0.04;entryDx=0;entryDy=0;entryPerimeter=0;" parent="1" source="qYvTp6i2QZ827_Topgat-7" target="qYvTp6i2QZ827_Topgat-1" edge="1">
          <mxGeometry relative="1" as="geometry" />
        </mxCell>
        <mxCell id="qYvTp6i2QZ827_Topgat-16" style="edgeStyle=orthogonalEdgeStyle;rounded=0;orthogonalLoop=1;jettySize=auto;html=1;entryX=0.119;entryY=1.02;entryDx=0;entryDy=0;entryPerimeter=0;" parent="1" source="qYvTp6i2QZ827_Topgat-5" target="qYvTp6i2QZ827_Topgat-1" edge="1">
          <mxGeometry relative="1" as="geometry" />
        </mxCell>
        <mxCell id="qYvTp6i2QZ827_Topgat-111" style="edgeStyle=orthogonalEdgeStyle;rounded=0;orthogonalLoop=1;jettySize=auto;html=1;exitX=1;exitY=0;exitDx=0;exitDy=0;entryX=0.5;entryY=0;entryDx=0;entryDy=0;" parent="1" source="qYvTp6i2QZ827_Topgat-20" target="qYvTp6i2QZ827_Topgat-109" edge="1">
          <mxGeometry relative="1" as="geometry" />
        </mxCell>
        <mxCell id="qYvTp6i2QZ827_Topgat-145" style="edgeStyle=orthogonalEdgeStyle;rounded=0;orthogonalLoop=1;jettySize=auto;html=1;exitX=0.75;exitY=1;exitDx=0;exitDy=0;entryX=1;entryY=0.5;entryDx=0;entryDy=0;" parent="1" source="qYvTp6i2QZ827_Topgat-20" target="qYvTp6i2QZ827_Topgat-117" edge="1">
          <mxGeometry relative="1" as="geometry" />
        </mxCell>
        <mxCell id="qYvTp6i2QZ827_Topgat-20" value="project" style="rounded=1;whiteSpace=wrap;html=1;" parent="1" vertex="1">
          <mxGeometry x="730" y="110" width="180" height="50" as="geometry" />
        </mxCell>
        <mxCell id="P2XnTy0FtMBGITCOYZvj-1" style="edgeStyle=orthogonalEdgeStyle;rounded=0;orthogonalLoop=1;jettySize=auto;html=1;exitX=1;exitY=1;exitDx=0;exitDy=0;entryX=0;entryY=0;entryDx=0;entryDy=0;" edge="1" parent="1" source="qYvTp6i2QZ827_Topgat-22" target="qYvTp6i2QZ827_Topgat-20">
          <mxGeometry relative="1" as="geometry" />
        </mxCell>
        <mxCell id="qYvTp6i2QZ827_Topgat-22" value="project_report" style="rounded=1;whiteSpace=wrap;html=1;" parent="1" vertex="1">
          <mxGeometry x="110" y="-250" width="180" height="50" as="geometry" />
        </mxCell>
        <mxCell id="qYvTp6i2QZ827_Topgat-25" style="edgeStyle=orthogonalEdgeStyle;rounded=0;orthogonalLoop=1;jettySize=auto;html=1;entryX=0;entryY=0.75;entryDx=0;entryDy=0;" parent="1" source="qYvTp6i2QZ827_Topgat-24" target="qYvTp6i2QZ827_Topgat-1" edge="1">
          <mxGeometry relative="1" as="geometry" />
        </mxCell>
        <mxCell id="qYvTp6i2QZ827_Topgat-24" value="Type" style="ellipse;whiteSpace=wrap;html=1;" parent="1" vertex="1">
          <mxGeometry x="-20" y="150" width="80" height="30" as="geometry" />
        </mxCell>
        <mxCell id="qYvTp6i2QZ827_Topgat-41" style="edgeStyle=orthogonalEdgeStyle;rounded=0;orthogonalLoop=1;jettySize=auto;html=1;exitX=0.5;exitY=1;exitDx=0;exitDy=0;entryX=0;entryY=0.5;entryDx=0;entryDy=0;" parent="1" source="qYvTp6i2QZ827_Topgat-27" target="qYvTp6i2QZ827_Topgat-20" edge="1">
          <mxGeometry relative="1" as="geometry" />
        </mxCell>
        <mxCell id="qYvTp6i2QZ827_Topgat-27" value="ID" style="ellipse;whiteSpace=wrap;html=1;" parent="1" vertex="1">
          <mxGeometry x="655" y="28" width="80" height="30" as="geometry" />
        </mxCell>
        <mxCell id="qYvTp6i2QZ827_Topgat-28" value="Title" style="ellipse;whiteSpace=wrap;html=1;" parent="1" vertex="1">
          <mxGeometry x="800" y="50" width="80" height="30" as="geometry" />
        </mxCell>
        <mxCell id="qYvTp6i2QZ827_Topgat-43" style="edgeStyle=orthogonalEdgeStyle;rounded=0;orthogonalLoop=1;jettySize=auto;html=1;exitX=0.5;exitY=1;exitDx=0;exitDy=0;entryX=1;entryY=0.25;entryDx=0;entryDy=0;" parent="1" source="qYvTp6i2QZ827_Topgat-29" target="qYvTp6i2QZ827_Topgat-20" edge="1">
          <mxGeometry relative="1" as="geometry" />
        </mxCell>
        <mxCell id="qYvTp6i2QZ827_Topgat-29" value="Detailes" style="ellipse;whiteSpace=wrap;html=1;" parent="1" vertex="1">
          <mxGeometry x="930" y="50" width="80" height="30" as="geometry" />
        </mxCell>
        <mxCell id="qYvTp6i2QZ827_Topgat-44" style="edgeStyle=orthogonalEdgeStyle;rounded=0;orthogonalLoop=1;jettySize=auto;html=1;exitX=0;exitY=0.5;exitDx=0;exitDy=0;" parent="1" source="qYvTp6i2QZ827_Topgat-30" target="qYvTp6i2QZ827_Topgat-20" edge="1">
          <mxGeometry relative="1" as="geometry" />
        </mxCell>
        <mxCell id="qYvTp6i2QZ827_Topgat-30" value="Catigory" style="ellipse;whiteSpace=wrap;html=1;" parent="1" vertex="1">
          <mxGeometry x="950" y="130" width="80" height="30" as="geometry" />
        </mxCell>
        <mxCell id="qYvTp6i2QZ827_Topgat-33" value="Target" style="ellipse;whiteSpace=wrap;html=1;" parent="1" vertex="1">
          <mxGeometry x="790" y="205" width="80" height="30" as="geometry" />
        </mxCell>
        <mxCell id="qYvTp6i2QZ827_Topgat-34" value="Catigory" style="rounded=1;whiteSpace=wrap;html=1;" parent="1" vertex="1">
          <mxGeometry x="994" y="357.47" width="180" height="50" as="geometry" />
        </mxCell>
        <mxCell id="qYvTp6i2QZ827_Topgat-35" value="ID" style="ellipse;whiteSpace=wrap;html=1;" parent="1" vertex="1">
          <mxGeometry x="880" y="350" width="80" height="30" as="geometry" />
        </mxCell>
        <mxCell id="qYvTp6i2QZ827_Topgat-39" style="edgeStyle=orthogonalEdgeStyle;rounded=0;orthogonalLoop=1;jettySize=auto;html=1;exitX=1;exitY=0.5;exitDx=0;exitDy=0;entryX=0;entryY=0.5;entryDx=0;entryDy=0;" parent="1" target="qYvTp6i2QZ827_Topgat-34" edge="1">
          <mxGeometry relative="1" as="geometry">
            <mxPoint x="960" y="412.47" as="sourcePoint" />
          </mxGeometry>
        </mxCell>
        <mxCell id="qYvTp6i2QZ827_Topgat-36" value="Name" style="ellipse;whiteSpace=wrap;html=1;" parent="1" vertex="1">
          <mxGeometry x="890" y="400" width="80" height="30" as="geometry" />
        </mxCell>
        <mxCell id="qYvTp6i2QZ827_Topgat-38" style="edgeStyle=orthogonalEdgeStyle;rounded=0;orthogonalLoop=1;jettySize=auto;html=1;" parent="1" source="qYvTp6i2QZ827_Topgat-37" target="qYvTp6i2QZ827_Topgat-34" edge="1">
          <mxGeometry relative="1" as="geometry" />
        </mxCell>
        <mxCell id="qYvTp6i2QZ827_Topgat-37" value="Description" style="ellipse;whiteSpace=wrap;html=1;" parent="1" vertex="1">
          <mxGeometry x="1210" y="357.47" width="80" height="30" as="geometry" />
        </mxCell>
        <mxCell id="qYvTp6i2QZ827_Topgat-40" style="edgeStyle=orthogonalEdgeStyle;rounded=0;orthogonalLoop=1;jettySize=auto;html=1;exitX=1;exitY=0.5;exitDx=0;exitDy=0;entryX=0.183;entryY=0.004;entryDx=0;entryDy=0;entryPerimeter=0;" parent="1" target="qYvTp6i2QZ827_Topgat-34" edge="1">
          <mxGeometry relative="1" as="geometry">
            <mxPoint x="960" y="362.47" as="sourcePoint" />
          </mxGeometry>
        </mxCell>
        <mxCell id="qYvTp6i2QZ827_Topgat-42" style="edgeStyle=orthogonalEdgeStyle;rounded=0;orthogonalLoop=1;jettySize=auto;html=1;exitX=0.5;exitY=1;exitDx=0;exitDy=0;entryX=0.454;entryY=0.092;entryDx=0;entryDy=0;entryPerimeter=0;" parent="1" source="qYvTp6i2QZ827_Topgat-28" target="qYvTp6i2QZ827_Topgat-20" edge="1">
          <mxGeometry relative="1" as="geometry" />
        </mxCell>
        <mxCell id="qYvTp6i2QZ827_Topgat-45" style="edgeStyle=orthogonalEdgeStyle;rounded=0;orthogonalLoop=1;jettySize=auto;html=1;exitX=0.5;exitY=0;exitDx=0;exitDy=0;entryX=0.561;entryY=0.956;entryDx=0;entryDy=0;entryPerimeter=0;" parent="1" source="qYvTp6i2QZ827_Topgat-33" target="qYvTp6i2QZ827_Topgat-20" edge="1">
          <mxGeometry relative="1" as="geometry" />
        </mxCell>
        <mxCell id="qYvTp6i2QZ827_Topgat-47" value="S_time" style="ellipse;whiteSpace=wrap;html=1;" parent="1" vertex="1">
          <mxGeometry x="620" y="140" width="80" height="30" as="geometry" />
        </mxCell>
        <mxCell id="qYvTp6i2QZ827_Topgat-49" style="edgeStyle=orthogonalEdgeStyle;rounded=0;orthogonalLoop=1;jettySize=auto;html=1;exitX=1;exitY=0;exitDx=0;exitDy=0;entryX=0.25;entryY=1;entryDx=0;entryDy=0;" parent="1" source="qYvTp6i2QZ827_Topgat-48" target="qYvTp6i2QZ827_Topgat-20" edge="1">
          <mxGeometry relative="1" as="geometry" />
        </mxCell>
        <mxCell id="qYvTp6i2QZ827_Topgat-48" value="E_time" style="ellipse;whiteSpace=wrap;html=1;" parent="1" vertex="1">
          <mxGeometry x="660" y="190" width="80" height="30" as="geometry" />
        </mxCell>
        <mxCell id="qYvTp6i2QZ827_Topgat-51" style="edgeStyle=orthogonalEdgeStyle;rounded=0;orthogonalLoop=1;jettySize=auto;html=1;exitX=1;exitY=0.5;exitDx=0;exitDy=0;entryX=0.052;entryY=0.984;entryDx=0;entryDy=0;entryPerimeter=0;" parent="1" source="qYvTp6i2QZ827_Topgat-47" target="qYvTp6i2QZ827_Topgat-20" edge="1">
          <mxGeometry relative="1" as="geometry" />
        </mxCell>
        <mxCell id="qYvTp6i2QZ827_Topgat-52" value="Country" style="ellipse;whiteSpace=wrap;html=1;" parent="1" vertex="1">
          <mxGeometry x="310" y="130" width="80" height="30" as="geometry" />
        </mxCell>
        <mxCell id="qYvTp6i2QZ827_Topgat-53" value="Facebook_url" style="ellipse;whiteSpace=wrap;html=1;" parent="1" vertex="1">
          <mxGeometry x="290" y="-10" width="80" height="30" as="geometry" />
        </mxCell>
        <mxCell id="qYvTp6i2QZ827_Topgat-55" style="edgeStyle=orthogonalEdgeStyle;rounded=0;orthogonalLoop=1;jettySize=auto;html=1;entryX=0.5;entryY=1;entryDx=0;entryDy=0;" parent="1" source="qYvTp6i2QZ827_Topgat-54" target="qYvTp6i2QZ827_Topgat-1" edge="1">
          <mxGeometry relative="1" as="geometry" />
        </mxCell>
        <mxCell id="qYvTp6i2QZ827_Topgat-54" value="Bdate" style="ellipse;whiteSpace=wrap;html=1;" parent="1" vertex="1">
          <mxGeometry x="160" y="200" width="80" height="30" as="geometry" />
        </mxCell>
        <mxCell id="qYvTp6i2QZ827_Topgat-56" style="edgeStyle=orthogonalEdgeStyle;rounded=0;orthogonalLoop=1;jettySize=auto;html=1;entryX=0.839;entryY=0.02;entryDx=0;entryDy=0;entryPerimeter=0;" parent="1" source="qYvTp6i2QZ827_Topgat-53" target="qYvTp6i2QZ827_Topgat-1" edge="1">
          <mxGeometry relative="1" as="geometry" />
        </mxCell>
        <mxCell id="qYvTp6i2QZ827_Topgat-57" style="edgeStyle=orthogonalEdgeStyle;rounded=0;orthogonalLoop=1;jettySize=auto;html=1;entryX=0.844;entryY=0.92;entryDx=0;entryDy=0;entryPerimeter=0;" parent="1" source="qYvTp6i2QZ827_Topgat-52" target="qYvTp6i2QZ827_Topgat-1" edge="1">
          <mxGeometry relative="1" as="geometry" />
        </mxCell>
        <mxCell id="qYvTp6i2QZ827_Topgat-94" style="edgeStyle=orthogonalEdgeStyle;rounded=0;orthogonalLoop=1;jettySize=auto;html=1;entryX=0.75;entryY=0;entryDx=0;entryDy=0;" parent="1" source="qYvTp6i2QZ827_Topgat-58" target="qYvTp6i2QZ827_Topgat-20" edge="1">
          <mxGeometry relative="1" as="geometry" />
        </mxCell>
        <mxCell id="qYvTp6i2QZ827_Topgat-110" style="edgeStyle=orthogonalEdgeStyle;rounded=0;orthogonalLoop=1;jettySize=auto;html=1;entryX=0.75;entryY=1;entryDx=0;entryDy=0;" parent="1" source="qYvTp6i2QZ827_Topgat-58" target="qYvTp6i2QZ827_Topgat-109" edge="1">
          <mxGeometry relative="1" as="geometry" />
        </mxCell>
        <mxCell id="qYvTp6i2QZ827_Topgat-58" value="Tag" style="rounded=1;whiteSpace=wrap;html=1;" parent="1" vertex="1">
          <mxGeometry x="1200" y="190" width="180" height="50" as="geometry" />
        </mxCell>
        <mxCell id="qYvTp6i2QZ827_Topgat-62" style="edgeStyle=orthogonalEdgeStyle;rounded=0;orthogonalLoop=1;jettySize=auto;html=1;entryX=0;entryY=0.25;entryDx=0;entryDy=0;" parent="1" source="qYvTp6i2QZ827_Topgat-59" target="qYvTp6i2QZ827_Topgat-58" edge="1">
          <mxGeometry relative="1" as="geometry" />
        </mxCell>
        <mxCell id="qYvTp6i2QZ827_Topgat-59" value="ID" style="ellipse;whiteSpace=wrap;html=1;" parent="1" vertex="1">
          <mxGeometry x="1070" y="190" width="80" height="30" as="geometry" />
        </mxCell>
        <mxCell id="qYvTp6i2QZ827_Topgat-61" value="Name" style="ellipse;whiteSpace=wrap;html=1;" parent="1" vertex="1">
          <mxGeometry x="1100" y="260" width="80" height="30" as="geometry" />
        </mxCell>
        <mxCell id="qYvTp6i2QZ827_Topgat-63" style="edgeStyle=orthogonalEdgeStyle;rounded=0;orthogonalLoop=1;jettySize=auto;html=1;entryX=0.201;entryY=1.032;entryDx=0;entryDy=0;entryPerimeter=0;" parent="1" source="qYvTp6i2QZ827_Topgat-61" target="qYvTp6i2QZ827_Topgat-58" edge="1">
          <mxGeometry relative="1" as="geometry" />
        </mxCell>
        <mxCell id="qYvTp6i2QZ827_Topgat-71" value="ID" style="ellipse;whiteSpace=wrap;html=1;" parent="1" vertex="1">
          <mxGeometry x="100" y="-330" width="80" height="30" as="geometry" />
        </mxCell>
        <mxCell id="qYvTp6i2QZ827_Topgat-72" value="Donations" style="rounded=1;whiteSpace=wrap;html=1;" parent="1" vertex="1">
          <mxGeometry x="405" y="500" width="180" height="50" as="geometry" />
        </mxCell>
        <mxCell id="qYvTp6i2QZ827_Topgat-74" value="Description" style="ellipse;whiteSpace=wrap;html=1;" parent="1" vertex="1">
          <mxGeometry x="230" y="-320" width="80" height="30" as="geometry" />
        </mxCell>
        <mxCell id="qYvTp6i2QZ827_Topgat-78" style="edgeStyle=orthogonalEdgeStyle;rounded=0;orthogonalLoop=1;jettySize=auto;html=1;" parent="1" source="qYvTp6i2QZ827_Topgat-75" target="qYvTp6i2QZ827_Topgat-22" edge="1">
          <mxGeometry relative="1" as="geometry" />
        </mxCell>
        <mxCell id="qYvTp6i2QZ827_Topgat-82" value="" style="edgeStyle=orthogonalEdgeStyle;rounded=0;orthogonalLoop=1;jettySize=auto;html=1;" parent="1" source="qYvTp6i2QZ827_Topgat-75" target="qYvTp6i2QZ827_Topgat-76" edge="1">
          <mxGeometry relative="1" as="geometry" />
        </mxCell>
        <mxCell id="qYvTp6i2QZ827_Topgat-75" value="Type" style="ellipse;whiteSpace=wrap;html=1;" parent="1" vertex="1">
          <mxGeometry x="330" y="-290" width="100" height="30" as="geometry" />
        </mxCell>
        <mxCell id="qYvTp6i2QZ827_Topgat-77" style="edgeStyle=orthogonalEdgeStyle;rounded=0;orthogonalLoop=1;jettySize=auto;html=1;" parent="1" source="qYvTp6i2QZ827_Topgat-76" target="qYvTp6i2QZ827_Topgat-22" edge="1">
          <mxGeometry relative="1" as="geometry" />
        </mxCell>
        <mxCell id="qYvTp6i2QZ827_Topgat-76" value="Date" style="ellipse;whiteSpace=wrap;html=1;" parent="1" vertex="1">
          <mxGeometry x="350" y="-230" width="80" height="30" as="geometry" />
        </mxCell>
        <mxCell id="qYvTp6i2QZ827_Topgat-80" style="edgeStyle=orthogonalEdgeStyle;rounded=0;orthogonalLoop=1;jettySize=auto;html=1;exitX=0.5;exitY=1;exitDx=0;exitDy=0;entryX=0.926;entryY=0.048;entryDx=0;entryDy=0;entryPerimeter=0;" parent="1" source="qYvTp6i2QZ827_Topgat-74" target="qYvTp6i2QZ827_Topgat-22" edge="1">
          <mxGeometry relative="1" as="geometry" />
        </mxCell>
        <mxCell id="qYvTp6i2QZ827_Topgat-81" style="edgeStyle=orthogonalEdgeStyle;rounded=0;orthogonalLoop=1;jettySize=auto;html=1;entryX=0.114;entryY=0.112;entryDx=0;entryDy=0;entryPerimeter=0;" parent="1" source="qYvTp6i2QZ827_Topgat-71" target="qYvTp6i2QZ827_Topgat-22" edge="1">
          <mxGeometry relative="1" as="geometry" />
        </mxCell>
        <mxCell id="qYvTp6i2QZ827_Topgat-83" value="Comments" style="rounded=1;whiteSpace=wrap;html=1;" parent="1" vertex="1">
          <mxGeometry x="545" y="-230" width="180" height="50" as="geometry" />
        </mxCell>
        <mxCell id="qYvTp6i2QZ827_Topgat-84" value="ID" style="ellipse;whiteSpace=wrap;html=1;" parent="1" vertex="1">
          <mxGeometry x="535" y="-310" width="80" height="30" as="geometry" />
        </mxCell>
        <mxCell id="qYvTp6i2QZ827_Topgat-85" value="Content" style="ellipse;whiteSpace=wrap;html=1;" parent="1" vertex="1">
          <mxGeometry x="665" y="-300" width="80" height="30" as="geometry" />
        </mxCell>
        <mxCell id="qYvTp6i2QZ827_Topgat-89" style="edgeStyle=orthogonalEdgeStyle;rounded=0;orthogonalLoop=1;jettySize=auto;html=1;" parent="1" source="qYvTp6i2QZ827_Topgat-90" target="qYvTp6i2QZ827_Topgat-83" edge="1">
          <mxGeometry relative="1" as="geometry" />
        </mxCell>
        <mxCell id="qYvTp6i2QZ827_Topgat-90" value="Date" style="ellipse;whiteSpace=wrap;html=1;" parent="1" vertex="1">
          <mxGeometry x="785" y="-210" width="80" height="30" as="geometry" />
        </mxCell>
        <mxCell id="qYvTp6i2QZ827_Topgat-91" style="edgeStyle=orthogonalEdgeStyle;rounded=0;orthogonalLoop=1;jettySize=auto;html=1;exitX=0.5;exitY=1;exitDx=0;exitDy=0;entryX=0.926;entryY=0.048;entryDx=0;entryDy=0;entryPerimeter=0;" parent="1" source="qYvTp6i2QZ827_Topgat-85" target="qYvTp6i2QZ827_Topgat-83" edge="1">
          <mxGeometry relative="1" as="geometry" />
        </mxCell>
        <mxCell id="qYvTp6i2QZ827_Topgat-92" style="edgeStyle=orthogonalEdgeStyle;rounded=0;orthogonalLoop=1;jettySize=auto;html=1;entryX=0.114;entryY=0.112;entryDx=0;entryDy=0;entryPerimeter=0;" parent="1" source="qYvTp6i2QZ827_Topgat-84" target="qYvTp6i2QZ827_Topgat-83" edge="1">
          <mxGeometry relative="1" as="geometry" />
        </mxCell>
        <mxCell id="qYvTp6i2QZ827_Topgat-93" style="edgeStyle=orthogonalEdgeStyle;rounded=0;orthogonalLoop=1;jettySize=auto;html=1;entryX=0.409;entryY=1.04;entryDx=0;entryDy=0;entryPerimeter=0;" parent="1" source="qYvTp6i2QZ827_Topgat-34" target="qYvTp6i2QZ827_Topgat-20" edge="1">
          <mxGeometry relative="1" as="geometry" />
        </mxCell>
        <mxCell id="qYvTp6i2QZ827_Topgat-95" value="write" style="rhombus;whiteSpace=wrap;html=1;" parent="1" vertex="1">
          <mxGeometry x="450" y="-100" width="80" height="80" as="geometry" />
        </mxCell>
        <mxCell id="qYvTp6i2QZ827_Topgat-97" value="write" style="rhombus;whiteSpace=wrap;html=1;" parent="1" vertex="1">
          <mxGeometry x="50" y="-180" width="80" height="80" as="geometry" />
        </mxCell>
        <mxCell id="qYvTp6i2QZ827_Topgat-98" value="m" style="text;html=1;align=center;verticalAlign=middle;resizable=0;points=[];autosize=1;strokeColor=none;fillColor=none;" parent="1" vertex="1">
          <mxGeometry x="525" y="-92" width="30" height="30" as="geometry" />
        </mxCell>
        <mxCell id="qYvTp6i2QZ827_Topgat-99" value="1" style="text;html=1;align=center;verticalAlign=middle;resizable=0;points=[];autosize=1;strokeColor=none;fillColor=none;" parent="1" vertex="1">
          <mxGeometry x="425" y="-92" width="30" height="30" as="geometry" />
        </mxCell>
        <mxCell id="qYvTp6i2QZ827_Topgat-100" value="m" style="text;html=1;align=center;verticalAlign=middle;resizable=0;points=[];autosize=1;strokeColor=none;fillColor=none;" parent="1" vertex="1">
          <mxGeometry x="85" y="-202" width="30" height="30" as="geometry" />
        </mxCell>
        <mxCell id="qYvTp6i2QZ827_Topgat-101" value="1" style="text;html=1;align=center;verticalAlign=middle;resizable=0;points=[];autosize=1;strokeColor=none;fillColor=none;" parent="1" vertex="1">
          <mxGeometry x="95" y="-122" width="30" height="30" as="geometry" />
        </mxCell>
        <mxCell id="qYvTp6i2QZ827_Topgat-105" value="create" style="rhombus;whiteSpace=wrap;html=1;" parent="1" vertex="1">
          <mxGeometry x="555" y="40" width="80" height="80" as="geometry" />
        </mxCell>
        <mxCell id="qYvTp6i2QZ827_Topgat-106" value="m" style="text;html=1;align=center;verticalAlign=middle;resizable=0;points=[];autosize=1;strokeColor=none;fillColor=none;" parent="1" vertex="1">
          <mxGeometry x="625" y="58" width="30" height="30" as="geometry" />
        </mxCell>
        <mxCell id="qYvTp6i2QZ827_Topgat-107" value="1" style="text;html=1;align=center;verticalAlign=middle;resizable=0;points=[];autosize=1;strokeColor=none;fillColor=none;" parent="1" vertex="1">
          <mxGeometry x="535" y="53" width="30" height="30" as="geometry" />
        </mxCell>
        <mxCell id="qYvTp6i2QZ827_Topgat-108" value="has" style="rhombus;whiteSpace=wrap;html=1;" parent="1" vertex="1">
          <mxGeometry x="770" y="260" width="80" height="80" as="geometry" />
        </mxCell>
        <mxCell id="qYvTp6i2QZ827_Topgat-109" value="Project_Tag" style="rounded=1;whiteSpace=wrap;html=1;" parent="1" vertex="1">
          <mxGeometry x="1120" y="55" width="180" height="50" as="geometry" />
        </mxCell>
        <mxCell id="qYvTp6i2QZ827_Topgat-112" style="edgeStyle=orthogonalEdgeStyle;rounded=0;orthogonalLoop=1;jettySize=auto;html=1;exitX=0.75;exitY=1;exitDx=0;exitDy=0;entryX=0.309;entryY=-0.005;entryDx=0;entryDy=0;entryPerimeter=0;" parent="1" source="qYvTp6i2QZ827_Topgat-83" target="qYvTp6i2QZ827_Topgat-20" edge="1">
          <mxGeometry relative="1" as="geometry" />
        </mxCell>
        <mxCell id="qYvTp6i2QZ827_Topgat-113" value="has" style="rhombus;whiteSpace=wrap;html=1;" parent="1" vertex="1">
          <mxGeometry x="690" y="-80" width="80" height="80" as="geometry" />
        </mxCell>
        <mxCell id="qYvTp6i2QZ827_Topgat-115" value="1" style="text;html=1;align=center;verticalAlign=middle;resizable=0;points=[];autosize=1;strokeColor=none;fillColor=none;" parent="1" vertex="1">
          <mxGeometry x="762" y="-65" width="30" height="30" as="geometry" />
        </mxCell>
        <mxCell id="qYvTp6i2QZ827_Topgat-116" value="m" style="text;html=1;align=center;verticalAlign=middle;resizable=0;points=[];autosize=1;strokeColor=none;fillColor=none;" parent="1" vertex="1">
          <mxGeometry x="675" y="-72" width="30" height="30" as="geometry" />
        </mxCell>
        <mxCell id="qYvTp6i2QZ827_Topgat-117" value="Rate" style="rounded=1;whiteSpace=wrap;html=1;" parent="1" vertex="1">
          <mxGeometry y="438" width="180" height="50" as="geometry" />
        </mxCell>
        <mxCell id="qYvTp6i2QZ827_Topgat-121" style="edgeStyle=orthogonalEdgeStyle;rounded=0;orthogonalLoop=1;jettySize=auto;html=1;" parent="1" source="qYvTp6i2QZ827_Topgat-118" target="qYvTp6i2QZ827_Topgat-72" edge="1">
          <mxGeometry relative="1" as="geometry" />
        </mxCell>
        <mxCell id="qYvTp6i2QZ827_Topgat-118" value="ID" style="ellipse;whiteSpace=wrap;html=1;" parent="1" vertex="1">
          <mxGeometry x="620" y="490" width="80" height="30" as="geometry" />
        </mxCell>
        <mxCell id="qYvTp6i2QZ827_Topgat-119" value="DAte" style="ellipse;whiteSpace=wrap;html=1;" parent="1" vertex="1">
          <mxGeometry x="615" y="540" width="80" height="30" as="geometry" />
        </mxCell>
        <mxCell id="qYvTp6i2QZ827_Topgat-123" style="edgeStyle=orthogonalEdgeStyle;rounded=0;orthogonalLoop=1;jettySize=auto;html=1;" parent="1" source="qYvTp6i2QZ827_Topgat-120" target="qYvTp6i2QZ827_Topgat-72" edge="1">
          <mxGeometry relative="1" as="geometry" />
        </mxCell>
        <mxCell id="qYvTp6i2QZ827_Topgat-120" value="amount" style="ellipse;whiteSpace=wrap;html=1;" parent="1" vertex="1">
          <mxGeometry x="455" y="587.47" width="80" height="30" as="geometry" />
        </mxCell>
        <mxCell id="qYvTp6i2QZ827_Topgat-122" style="edgeStyle=orthogonalEdgeStyle;rounded=0;orthogonalLoop=1;jettySize=auto;html=1;entryX=0.904;entryY=0.968;entryDx=0;entryDy=0;entryPerimeter=0;" parent="1" source="qYvTp6i2QZ827_Topgat-119" target="qYvTp6i2QZ827_Topgat-72" edge="1">
          <mxGeometry relative="1" as="geometry" />
        </mxCell>
        <mxCell id="qYvTp6i2QZ827_Topgat-125" style="edgeStyle=orthogonalEdgeStyle;rounded=0;orthogonalLoop=1;jettySize=auto;html=1;entryX=0.309;entryY=0.997;entryDx=0;entryDy=0;entryPerimeter=0;" parent="1" source="qYvTp6i2QZ827_Topgat-72" target="qYvTp6i2QZ827_Topgat-20" edge="1">
          <mxGeometry relative="1" as="geometry" />
        </mxCell>
        <mxCell id="qYvTp6i2QZ827_Topgat-127" value="recive" style="rhombus;whiteSpace=wrap;html=1;" parent="1" vertex="1">
          <mxGeometry x="747" y="420" width="80" height="80" as="geometry" />
        </mxCell>
        <mxCell id="qYvTp6i2QZ827_Topgat-128" value="" style="edgeStyle=orthogonalEdgeStyle;rounded=0;orthogonalLoop=1;jettySize=auto;html=1;entryX=0;entryY=0.75;entryDx=0;entryDy=0;" parent="1" source="qYvTp6i2QZ827_Topgat-1" target="qYvTp6i2QZ827_Topgat-126" edge="1">
          <mxGeometry relative="1" as="geometry">
            <mxPoint x="270" y="80" as="sourcePoint" />
            <mxPoint x="405" y="538" as="targetPoint" />
          </mxGeometry>
        </mxCell>
        <mxCell id="qYvTp6i2QZ827_Topgat-126" value="make" style="rhombus;whiteSpace=wrap;html=1;" parent="1" vertex="1">
          <mxGeometry x="300" y="290" width="80" height="80" as="geometry" />
        </mxCell>
        <mxCell id="qYvTp6i2QZ827_Topgat-129" value="m" style="text;html=1;align=center;verticalAlign=middle;resizable=0;points=[];autosize=1;strokeColor=none;fillColor=none;" parent="1" vertex="1">
          <mxGeometry x="365" y="308" width="30" height="30" as="geometry" />
        </mxCell>
        <mxCell id="qYvTp6i2QZ827_Topgat-130" value="1" style="text;html=1;align=center;verticalAlign=middle;resizable=0;points=[];autosize=1;strokeColor=none;fillColor=none;" parent="1" vertex="1">
          <mxGeometry x="315" y="268" width="30" height="30" as="geometry" />
        </mxCell>
        <mxCell id="qYvTp6i2QZ827_Topgat-131" value="1" style="text;html=1;align=center;verticalAlign=middle;resizable=0;points=[];autosize=1;strokeColor=none;fillColor=none;" parent="1" vertex="1">
          <mxGeometry x="755" y="388" width="30" height="30" as="geometry" />
        </mxCell>
        <mxCell id="qYvTp6i2QZ827_Topgat-132" value="m" style="text;html=1;align=center;verticalAlign=middle;resizable=0;points=[];autosize=1;strokeColor=none;fillColor=none;" parent="1" vertex="1">
          <mxGeometry x="745" y="488" width="30" height="30" as="geometry" />
        </mxCell>
        <mxCell id="qYvTp6i2QZ827_Topgat-135" value="ID" style="ellipse;whiteSpace=wrap;html=1;" parent="1" vertex="1">
          <mxGeometry x="-90" y="388" width="80" height="30" as="geometry" />
        </mxCell>
        <mxCell id="qYvTp6i2QZ827_Topgat-136" value="Value" style="ellipse;whiteSpace=wrap;html=1;" parent="1" vertex="1">
          <mxGeometry x="-40" y="528" width="80" height="30" as="geometry" />
        </mxCell>
        <mxCell id="qYvTp6i2QZ827_Topgat-137" style="edgeStyle=orthogonalEdgeStyle;rounded=0;orthogonalLoop=1;jettySize=auto;html=1;entryX=0.18;entryY=0.077;entryDx=0;entryDy=0;entryPerimeter=0;" parent="1" source="qYvTp6i2QZ827_Topgat-135" target="qYvTp6i2QZ827_Topgat-117" edge="1">
          <mxGeometry relative="1" as="geometry" />
        </mxCell>
        <mxCell id="qYvTp6i2QZ827_Topgat-139" style="edgeStyle=orthogonalEdgeStyle;rounded=0;orthogonalLoop=1;jettySize=auto;html=1;entryX=0.174;entryY=0.973;entryDx=0;entryDy=0;entryPerimeter=0;" parent="1" source="qYvTp6i2QZ827_Topgat-136" target="qYvTp6i2QZ827_Topgat-117" edge="1">
          <mxGeometry relative="1" as="geometry" />
        </mxCell>
        <mxCell id="qYvTp6i2QZ827_Topgat-144" value="" style="edgeStyle=orthogonalEdgeStyle;rounded=0;orthogonalLoop=1;jettySize=auto;html=1;exitX=0.25;exitY=1;exitDx=0;exitDy=0;entryX=0.5;entryY=0;entryDx=0;entryDy=0;" parent="1" source="qYvTp6i2QZ827_Topgat-1" target="qYvTp6i2QZ827_Topgat-143" edge="1">
          <mxGeometry relative="1" as="geometry">
            <mxPoint x="158" y="100" as="sourcePoint" />
            <mxPoint x="90" y="438" as="targetPoint" />
          </mxGeometry>
        </mxCell>
        <mxCell id="qYvTp6i2QZ827_Topgat-143" value="evaluate" style="rhombus;whiteSpace=wrap;html=1;" parent="1" vertex="1">
          <mxGeometry x="50" y="308" width="80" height="80" as="geometry" />
        </mxCell>
        <mxCell id="qYvTp6i2QZ827_Topgat-146" value="has" style="rhombus;whiteSpace=wrap;html=1;" parent="1" vertex="1">
          <mxGeometry x="230" y="423" width="80" height="80" as="geometry" />
        </mxCell>
        <mxCell id="qYvTp6i2QZ827_Topgat-147" value="1" style="text;html=1;align=center;verticalAlign=middle;resizable=0;points=[];autosize=1;strokeColor=none;fillColor=none;" parent="1" vertex="1">
          <mxGeometry x="295" y="438" width="30" height="30" as="geometry" />
        </mxCell>
        <mxCell id="qYvTp6i2QZ827_Topgat-148" value="m" style="text;html=1;align=center;verticalAlign=middle;resizable=0;points=[];autosize=1;strokeColor=none;fillColor=none;" parent="1" vertex="1">
          <mxGeometry x="215" y="438" width="30" height="30" as="geometry" />
        </mxCell>
        <mxCell id="qYvTp6i2QZ827_Topgat-149" value="1" style="text;html=1;align=center;verticalAlign=middle;resizable=0;points=[];autosize=1;strokeColor=none;fillColor=none;" parent="1" vertex="1">
          <mxGeometry x="85" y="278" width="30" height="30" as="geometry" />
        </mxCell>
        <mxCell id="qYvTp6i2QZ827_Topgat-150" value="m" style="text;html=1;align=center;verticalAlign=middle;resizable=0;points=[];autosize=1;strokeColor=none;fillColor=none;" parent="1" vertex="1">
          <mxGeometry x="85" y="378" width="30" height="30" as="geometry" />
        </mxCell>
        <mxCell id="qYvTp6i2QZ827_Topgat-151" value="Project_image" style="rounded=1;whiteSpace=wrap;html=1;" parent="1" vertex="1">
          <mxGeometry x="1050" y="-172" width="140" height="52" as="geometry" />
        </mxCell>
        <mxCell id="qYvTp6i2QZ827_Topgat-152" style="edgeStyle=orthogonalEdgeStyle;rounded=0;orthogonalLoop=1;jettySize=auto;html=1;entryX=0.882;entryY=-0.004;entryDx=0;entryDy=0;entryPerimeter=0;" parent="1" source="qYvTp6i2QZ827_Topgat-151" target="qYvTp6i2QZ827_Topgat-20" edge="1">
          <mxGeometry relative="1" as="geometry" />
        </mxCell>
        <mxCell id="qYvTp6i2QZ827_Topgat-153" value="ID" style="ellipse;whiteSpace=wrap;html=1;" parent="1" vertex="1">
          <mxGeometry x="1230" y="-200" width="80" height="30" as="geometry" />
        </mxCell>
        <mxCell id="qYvTp6i2QZ827_Topgat-155" style="edgeStyle=orthogonalEdgeStyle;rounded=0;orthogonalLoop=1;jettySize=auto;html=1;" parent="1" source="qYvTp6i2QZ827_Topgat-154" target="qYvTp6i2QZ827_Topgat-151" edge="1">
          <mxGeometry relative="1" as="geometry" />
        </mxCell>
        <mxCell id="qYvTp6i2QZ827_Topgat-154" value="URL" style="ellipse;whiteSpace=wrap;html=1;" parent="1" vertex="1">
          <mxGeometry x="1230" y="-152" width="80" height="30" as="geometry" />
        </mxCell>
        <mxCell id="qYvTp6i2QZ827_Topgat-156" style="edgeStyle=orthogonalEdgeStyle;rounded=0;orthogonalLoop=1;jettySize=auto;html=1;entryX=0.654;entryY=-0.012;entryDx=0;entryDy=0;entryPerimeter=0;" parent="1" source="qYvTp6i2QZ827_Topgat-153" target="qYvTp6i2QZ827_Topgat-151" edge="1">
          <mxGeometry relative="1" as="geometry" />
        </mxCell>
        <mxCell id="qYvTp6i2QZ827_Topgat-157" value="has" style="rhombus;whiteSpace=wrap;html=1;" parent="1" vertex="1">
          <mxGeometry x="850" y="-122" width="80" height="80" as="geometry" />
        </mxCell>
        <mxCell id="qYvTp6i2QZ827_Topgat-158" value="m" style="text;html=1;align=center;verticalAlign=middle;resizable=0;points=[];autosize=1;strokeColor=none;fillColor=none;" parent="1" vertex="1">
          <mxGeometry x="885" y="-142" width="30" height="30" as="geometry" />
        </mxCell>
        <mxCell id="qYvTp6i2QZ827_Topgat-159" value="1" style="text;html=1;align=center;verticalAlign=middle;resizable=0;points=[];autosize=1;strokeColor=none;fillColor=none;" parent="1" vertex="1">
          <mxGeometry x="885" y="-55" width="30" height="30" as="geometry" />
        </mxCell>
        <mxCell id="P2XnTy0FtMBGITCOYZvj-24" style="edgeStyle=orthogonalEdgeStyle;rounded=0;orthogonalLoop=1;jettySize=auto;html=1;exitX=0.25;exitY=1;exitDx=0;exitDy=0;entryX=0.75;entryY=0;entryDx=0;entryDy=0;" edge="1" parent="1" source="P2XnTy0FtMBGITCOYZvj-12" target="qYvTp6i2QZ827_Topgat-1">
          <mxGeometry relative="1" as="geometry" />
        </mxCell>
        <mxCell id="P2XnTy0FtMBGITCOYZvj-12" value="comment_report" style="rounded=1;whiteSpace=wrap;html=1;" vertex="1" parent="1">
          <mxGeometry x="350" y="-368" width="180" height="50" as="geometry" />
        </mxCell>
        <mxCell id="P2XnTy0FtMBGITCOYZvj-13" value="ID" style="ellipse;whiteSpace=wrap;html=1;" vertex="1" parent="1">
          <mxGeometry x="340" y="-448" width="80" height="30" as="geometry" />
        </mxCell>
        <mxCell id="P2XnTy0FtMBGITCOYZvj-14" value="Description" style="ellipse;whiteSpace=wrap;html=1;" vertex="1" parent="1">
          <mxGeometry x="470" y="-438" width="80" height="30" as="geometry" />
        </mxCell>
        <mxCell id="P2XnTy0FtMBGITCOYZvj-15" style="edgeStyle=orthogonalEdgeStyle;rounded=0;orthogonalLoop=1;jettySize=auto;html=1;" edge="1" source="P2XnTy0FtMBGITCOYZvj-17" target="P2XnTy0FtMBGITCOYZvj-12" parent="1">
          <mxGeometry relative="1" as="geometry" />
        </mxCell>
        <mxCell id="P2XnTy0FtMBGITCOYZvj-16" value="" style="edgeStyle=orthogonalEdgeStyle;rounded=0;orthogonalLoop=1;jettySize=auto;html=1;" edge="1" source="P2XnTy0FtMBGITCOYZvj-17" target="P2XnTy0FtMBGITCOYZvj-19" parent="1">
          <mxGeometry relative="1" as="geometry" />
        </mxCell>
        <mxCell id="P2XnTy0FtMBGITCOYZvj-17" value="Type" style="ellipse;whiteSpace=wrap;html=1;" vertex="1" parent="1">
          <mxGeometry x="570" y="-408" width="100" height="30" as="geometry" />
        </mxCell>
        <mxCell id="P2XnTy0FtMBGITCOYZvj-18" style="edgeStyle=orthogonalEdgeStyle;rounded=0;orthogonalLoop=1;jettySize=auto;html=1;" edge="1" source="P2XnTy0FtMBGITCOYZvj-19" target="P2XnTy0FtMBGITCOYZvj-12" parent="1">
          <mxGeometry relative="1" as="geometry" />
        </mxCell>
        <mxCell id="P2XnTy0FtMBGITCOYZvj-19" value="Date" style="ellipse;whiteSpace=wrap;html=1;" vertex="1" parent="1">
          <mxGeometry x="590" y="-348" width="80" height="30" as="geometry" />
        </mxCell>
        <mxCell id="P2XnTy0FtMBGITCOYZvj-20" style="edgeStyle=orthogonalEdgeStyle;rounded=0;orthogonalLoop=1;jettySize=auto;html=1;exitX=0.5;exitY=1;exitDx=0;exitDy=0;entryX=0.926;entryY=0.048;entryDx=0;entryDy=0;entryPerimeter=0;" edge="1" source="P2XnTy0FtMBGITCOYZvj-14" target="P2XnTy0FtMBGITCOYZvj-12" parent="1">
          <mxGeometry relative="1" as="geometry" />
        </mxCell>
        <mxCell id="P2XnTy0FtMBGITCOYZvj-21" style="edgeStyle=orthogonalEdgeStyle;rounded=0;orthogonalLoop=1;jettySize=auto;html=1;entryX=0.114;entryY=0.112;entryDx=0;entryDy=0;entryPerimeter=0;" edge="1" source="P2XnTy0FtMBGITCOYZvj-13" target="P2XnTy0FtMBGITCOYZvj-12" parent="1">
          <mxGeometry relative="1" as="geometry" />
        </mxCell>
        <mxCell id="P2XnTy0FtMBGITCOYZvj-22" value="m" style="text;html=1;align=center;verticalAlign=middle;resizable=0;points=[];autosize=1;strokeColor=none;fillColor=none;" vertex="1" parent="1">
          <mxGeometry x="325" y="-320" width="30" height="30" as="geometry" />
        </mxCell>
        <mxCell id="P2XnTy0FtMBGITCOYZvj-23" style="edgeStyle=orthogonalEdgeStyle;rounded=0;orthogonalLoop=1;jettySize=auto;html=1;exitX=1;exitY=1;exitDx=0;exitDy=0;entryX=0.452;entryY=-0.064;entryDx=0;entryDy=0;entryPerimeter=0;" edge="1" parent="1" source="P2XnTy0FtMBGITCOYZvj-12" target="qYvTp6i2QZ827_Topgat-83">
          <mxGeometry relative="1" as="geometry" />
        </mxCell>
      </root>
    </mxGraphModel>
  </diagram>
</mxfile>
